# Blender 4.3.2
# www.blender.org
mtllib test_cones.mtl
o Cone1
v 0.052506 0.005211 -0.515377
v 0.203557 0.005211 -0.502735
v 0.348803 0.005211 -0.465295
v 0.482663 0.005211 -0.404496
v 0.599992 0.005211 -0.322673
v 0.696281 0.005211 -0.222973
v 0.767830 0.005211 -0.109225
v 0.811890 0.005211 0.014199
v 0.826767 0.005211 0.142555
v 0.811890 0.005211 0.270911
v 0.767830 0.005211 0.394335
v 0.696281 0.005211 0.508083
v 0.599992 0.005211 0.607784
v 0.482663 0.005211 0.689606
v 0.348803 0.005211 0.750405
v 0.203557 0.005211 0.787845
v 0.052506 0.005211 0.800488
v -0.098545 0.005211 0.787845
v -0.243791 0.005211 0.750405
v -0.377650 0.005211 0.689606
v -0.494979 0.005211 0.607784
v -0.591268 0.005211 0.508083
v -0.662818 0.005211 0.394335
v -0.706878 0.005211 0.270911
v -0.721755 0.005211 0.142555
v -0.706878 0.005211 0.014199
v -0.662818 0.005211 -0.109225
v -0.591268 0.005211 -0.222973
v -0.494979 0.005211 -0.322673
v -0.377650 0.005211 -0.404496
v -0.243791 0.005211 -0.465295
v -0.098545 0.005211 -0.502735
v 0.052506 2.156137 0.142555
vn 0.0798 0.2916 -0.9532
vn 0.2385 0.2944 -0.9254
vn 0.3945 0.2998 -0.8686
vn 0.5443 0.3074 -0.7805
vn 0.6824 0.3162 -0.6590
vn 0.8005 0.3251 -0.5035
vn 0.8882 0.3325 -0.3171
vn 0.9354 0.3367 -0.1084
vn 0.9354 0.3367 0.1084
vn 0.8882 0.3325 0.3171
vn 0.8005 0.3251 0.5035
vn 0.6824 0.3162 0.6590
vn 0.5443 0.3074 0.7805
vn 0.3945 0.2998 0.8686
vn 0.2385 0.2944 0.9254
vn 0.0798 0.2916 0.9532
vn -0.0798 0.2916 0.9532
vn -0.2385 0.2944 0.9254
vn -0.3945 0.2998 0.8686
vn -0.5443 0.3074 0.7805
vn -0.6824 0.3162 0.6590
vn -0.8005 0.3251 0.5035
vn -0.8882 0.3325 0.3171
vn -0.9354 0.3367 0.1084
vn -0.9354 0.3367 -0.1084
vn -0.8882 0.3325 -0.3171
vn -0.8005 0.3251 -0.5035
vn -0.6824 0.3162 -0.6590
vn -0.5443 0.3074 -0.7805
vn -0.3945 0.2998 -0.8686
vn -0.0000 -1.0000 -0.0000
vn -0.2385 0.2944 -0.9254
vn -0.0798 0.2916 -0.9532
vt 0.250000 0.490000
vt 0.250000 0.250000
vt 0.296822 0.485388
vt 0.341844 0.471731
vt 0.383337 0.449553
vt 0.419706 0.419706
vt 0.449553 0.383337
vt 0.471731 0.341844
vt 0.485388 0.296822
vt 0.490000 0.250000
vt 0.485388 0.203178
vt 0.471731 0.158156
vt 0.449553 0.116663
vt 0.419706 0.080294
vt 0.383337 0.050447
vt 0.341844 0.028269
vt 0.296822 0.014612
vt 0.250000 0.010000
vt 0.203178 0.014612
vt 0.158156 0.028269
vt 0.116663 0.050447
vt 0.080294 0.080294
vt 0.050447 0.116663
vt 0.028269 0.158156
vt 0.014612 0.203178
vt 0.010000 0.250000
vt 0.014612 0.296822
vt 0.028269 0.341844
vt 0.050447 0.383337
vt 0.080294 0.419706
vt 0.116663 0.449553
vt 0.158156 0.471731
vt 0.750000 0.490000
vt 0.796822 0.485388
vt 0.841844 0.471731
vt 0.883337 0.449553
vt 0.919706 0.419706
vt 0.949553 0.383337
vt 0.971731 0.341844
vt 0.985388 0.296822
vt 0.990000 0.250000
vt 0.985388 0.203178
vt 0.971731 0.158156
vt 0.949553 0.116663
vt 0.919706 0.080294
vt 0.883337 0.050447
vt 0.841844 0.028269
vt 0.796822 0.014612
vt 0.750000 0.010000
vt 0.703178 0.014612
vt 0.658156 0.028269
vt 0.616663 0.050447
vt 0.580294 0.080294
vt 0.550447 0.116663
vt 0.528269 0.158156
vt 0.514612 0.203178
vt 0.510000 0.250000
vt 0.514612 0.296822
vt 0.528269 0.341844
vt 0.550447 0.383337
vt 0.580294 0.419706
vt 0.616663 0.449553
vt 0.658156 0.471731
vt 0.703178 0.485388
vt 0.203178 0.485388
s 0
f 1/1/1 33/2/1 2/3/1
f 2/3/2 33/2/2 3/4/2
f 3/4/3 33/2/3 4/5/3
f 4/5/4 33/2/4 5/6/4
f 5/6/5 33/2/5 6/7/5
f 6/7/6 33/2/6 7/8/6
f 7/8/7 33/2/7 8/9/7
f 8/9/8 33/2/8 9/10/8
f 9/10/9 33/2/9 10/11/9
f 10/11/10 33/2/10 11/12/10
f 11/12/11 33/2/11 12/13/11
f 12/13/12 33/2/12 13/14/12
f 13/14/13 33/2/13 14/15/13
f 14/15/14 33/2/14 15/16/14
f 15/16/15 33/2/15 16/17/15
f 16/17/16 33/2/16 17/18/16
f 17/18/17 33/2/17 18/19/17
f 18/19/18 33/2/18 19/20/18
f 19/20/19 33/2/19 20/21/19
f 20/21/20 33/2/20 21/22/20
f 21/22/21 33/2/21 22/23/21
f 22/23/22 33/2/22 23/24/22
f 23/24/23 33/2/23 24/25/23
f 24/25/24 33/2/24 25/26/24
f 25/26/25 33/2/25 26/27/25
f 26/27/26 33/2/26 27/28/26
f 27/28/27 33/2/27 28/29/27
f 28/29/28 33/2/28 29/30/28
f 29/30/29 33/2/29 30/31/29
f 30/31/30 33/2/30 31/32/30
f 1/33/31 2/34/31 3/35/31 4/36/31 5/37/31 6/38/31 7/39/31 8/40/31 9/41/31 10/42/31 11/43/31 12/44/31 13/45/31 14/46/31 15/47/31 16/48/31 17/49/31 18/50/31 19/51/31 20/52/31 21/53/31 22/54/31 23/55/31 24/56/31 25/57/31 26/58/31 27/59/31 28/60/31 29/61/31 30/62/31 31/63/31 32/64/31
f 31/32/32 33/2/32 32/65/32
f 32/65/33 33/2/33 1/1/33
o Cone2
v 0.784776 -0.058960 -1.206780
v 0.935077 -0.058960 -1.190410
v 1.079602 -0.058960 -1.141928
v 1.212797 -0.058960 -1.063199
v 1.329543 -0.058960 -0.957246
v 1.425355 -0.058960 -0.828143
v 1.496549 -0.058960 -0.680850
v 1.540390 -0.058960 -0.521028
v 1.555193 -0.058960 -0.354818
v 1.540390 -0.058960 -0.188608
v 1.496549 -0.058960 -0.028786
v 1.425355 -0.058960 0.118507
v 1.329543 -0.058960 0.247610
v 1.212797 -0.058960 0.353563
v 1.079602 -0.058960 0.432293
v 0.935077 -0.058960 0.480774
v 0.784776 -0.058960 0.497144
v 0.634475 -0.058960 0.480774
v 0.489950 -0.058960 0.432293
v 0.356755 -0.058960 0.353563
v 0.240009 -0.058960 0.247610
v 0.144198 -0.058960 0.118507
v 0.073004 -0.058960 -0.028786
v 0.029162 -0.058960 -0.188608
v 0.014359 -0.058960 -0.354818
v 0.029162 -0.058960 -0.521028
v 0.073004 -0.058960 -0.680850
v 0.144198 -0.058960 -0.828143
v 0.240009 -0.058960 -0.957246
v 0.356755 -0.058960 -1.063199
v 0.489950 -0.058960 -1.141928
v 0.634475 -0.058960 -1.190410
v 0.784776 2.405326 -0.354818
vn 0.1024 0.3250 -0.9401
vn 0.3010 0.3226 -0.8974
vn 0.4824 0.3184 -0.8161
vn 0.6383 0.3130 -0.7033
vn 0.7641 0.3075 -0.5671
vn 0.8581 0.3027 -0.4148
vn 0.9202 0.2992 -0.2524
vn 0.9510 0.2973 -0.0847
vn 0.9510 0.2973 0.0847
vn 0.9202 0.2992 0.2524
vn 0.8581 0.3027 0.4148
vn 0.7641 0.3075 0.5671
vn 0.6383 0.3130 0.7033
vn 0.4824 0.3184 0.8161
vn 0.3010 0.3226 0.8974
vn 0.1024 0.3250 0.9401
vn -0.1024 0.3250 0.9401
vn -0.3010 0.3226 0.8974
vn -0.4824 0.3184 0.8161
vn -0.6383 0.3130 0.7033
vn -0.7641 0.3075 0.5671
vn -0.8581 0.3027 0.4148
vn -0.9202 0.2992 0.2524
vn -0.9510 0.2973 0.0847
vn -0.9510 0.2973 -0.0847
vn -0.9202 0.2992 -0.2524
vn -0.8581 0.3027 -0.4148
vn -0.7641 0.3075 -0.5671
vn -0.6383 0.3130 -0.7033
vn -0.4824 0.3184 -0.8161
vn -0.0000 -1.0000 -0.0000
vn -0.3010 0.3226 -0.8974
vn -0.1024 0.3250 -0.9401
vt 0.250000 0.490000
vt 0.250000 0.250000
vt 0.296822 0.485388
vt 0.341844 0.471731
vt 0.383337 0.449553
vt 0.419706 0.419706
vt 0.449553 0.383337
vt 0.471731 0.341844
vt 0.485388 0.296822
vt 0.490000 0.250000
vt 0.485388 0.203178
vt 0.471731 0.158156
vt 0.449553 0.116663
vt 0.419706 0.080294
vt 0.383337 0.050447
vt 0.341844 0.028269
vt 0.296822 0.014612
vt 0.250000 0.010000
vt 0.203178 0.014612
vt 0.158156 0.028269
vt 0.116663 0.050447
vt 0.080294 0.080294
vt 0.050447 0.116663
vt 0.028269 0.158156
vt 0.014612 0.203178
vt 0.010000 0.250000
vt 0.014612 0.296822
vt 0.028269 0.341844
vt 0.050447 0.383337
vt 0.080294 0.419706
vt 0.116663 0.449553
vt 0.158156 0.471731
vt 0.750000 0.490000
vt 0.796822 0.485388
vt 0.841844 0.471731
vt 0.883337 0.449553
vt 0.919706 0.419706
vt 0.949553 0.383337
vt 0.971731 0.341844
vt 0.985388 0.296822
vt 0.990000 0.250000
vt 0.985388 0.203178
vt 0.971731 0.158156
vt 0.949553 0.116663
vt 0.919706 0.080294
vt 0.883337 0.050447
vt 0.841844 0.028269
vt 0.796822 0.014612
vt 0.750000 0.010000
vt 0.703178 0.014612
vt 0.658156 0.028269
vt 0.616663 0.050447
vt 0.580294 0.080294
vt 0.550447 0.116663
vt 0.528269 0.158156
vt 0.514612 0.203178
vt 0.510000 0.250000
vt 0.514612 0.296822
vt 0.528269 0.341844
vt 0.550447 0.383337
vt 0.580294 0.419706
vt 0.616663 0.449553
vt 0.658156 0.471731
vt 0.703178 0.485388
vt 0.203178 0.485388
s 0
f 34/66/34 66/67/34 35/68/34
f 35/68/35 66/67/35 36/69/35
f 36/69/36 66/67/36 37/70/36
f 37/70/37 66/67/37 38/71/37
f 38/71/38 66/67/38 39/72/38
f 39/72/39 66/67/39 40/73/39
f 40/73/40 66/67/40 41/74/40
f 41/74/41 66/67/41 42/75/41
f 42/75/42 66/67/42 43/76/42
f 43/76/43 66/67/43 44/77/43
f 44/77/44 66/67/44 45/78/44
f 45/78/45 66/67/45 46/79/45
f 46/79/46 66/67/46 47/80/46
f 47/80/47 66/67/47 48/81/47
f 48/81/48 66/67/48 49/82/48
f 49/82/49 66/67/49 50/83/49
f 50/83/50 66/67/50 51/84/50
f 51/84/51 66/67/51 52/85/51
f 52/85/52 66/67/52 53/86/52
f 53/86/53 66/67/53 54/87/53
f 54/87/54 66/67/54 55/88/54
f 55/88/55 66/67/55 56/89/55
f 56/89/56 66/67/56 57/90/56
f 57/90/57 66/67/57 58/91/57
f 58/91/58 66/67/58 59/92/58
f 59/92/59 66/67/59 60/93/59
f 60/93/60 66/67/60 61/94/60
f 61/94/61 66/67/61 62/95/61
f 62/95/62 66/67/62 63/96/62
f 63/96/63 66/67/63 64/97/63
f 34/98/64 35/99/64 36/100/64 37/101/64 38/102/64 39/103/64 40/104/64 41/105/64 42/106/64 43/107/64 44/108/64 45/109/64 46/110/64 47/111/64 48/112/64 49/113/64 50/114/64 51/115/64 52/116/64 53/117/64 54/118/64 55/119/64 56/120/64 57/121/64 58/122/64 59/123/64 60/124/64 61/125/64 62/126/64 63/127/64 64/128/64 65/129/64
f 64/97/65 66/67/65 65/130/65
f 65/130/66 66/67/66 34/66/66
